<?xml version="1.0" encoding="UTF-8" standalone="no"?>
<!-- Created with Inkscape (http://www.inkscape.org/) -->

<svg
   version="1.1"
   id="svg1"
   width="300"
   height="300"
   viewBox="0 0 300 300"
   xmlns="http://www.w3.org/2000/svg"
   xmlns:svg="http://www.w3.org/2000/svg">
  <defs
     id="defs1" />
  <g
     id="g1">
    <g
       id="g2"
       style="fill:#000000;fill-opacity:1;stroke:none;stroke-opacity:1">
      <path
         style="fill:#000000;fill-opacity:1;stroke:none;stroke-opacity:1"
         d="m 136.98645,192.49357 c -11.59518,-2.81765 -24.90196,-11.89453 -32.21588,-21.97525 l -2.88885,-3.98168 9.80914,-1.23109 c 11.96474,-1.50163 23.28268,-4.35356 37.80914,-9.52729 24.59812,-8.76084 46.91548,-13.3967 54.87522,-11.39893 3.19256,0.80128 3.44991,3.83894 0.94824,11.19253 -6.00447,17.6499 -21.70802,32.10439 -40.0392,36.85448 -7.28668,1.88817 -20.67341,1.91997 -28.29781,0.0672 z m 73.57319,-33.44808 c 3.26079,-8.02485 3.21643,-12.96904 -0.14465,-16.12118 -2.43962,-2.28796 -3.24108,-2.42098 -14.25,-2.36507 -13.0884,0.0665 -20.6171,1.77067 -44.42535,10.05619 -38.32757,13.3384 -62.336757,14.78745 -72.73439,4.38982 -8.21769,-8.21769 -5.454832,-23.92493 6.474845,-36.81041 5.879996,-6.35109 8.009364,-7.34644 5.438078,-2.54195 -2.135978,3.99112 -1.8688,14.6392 0.431089,17.18055 2.843112,3.1416 10.294378,4.33034 19.402128,3.09533 8.81568,-1.1954 15.67719,-3.07177 36.24861,-9.91265 29.83549,-9.92159 42.00025,-12.50448 55.47807,-11.77944 19.48057,1.04796 27.36353,10.12286 23.13407,26.63204 -2.14233,8.36233 -8.22151,17.58075 -14.57927,22.10787 l -2.91358,2.07466 z M 96.25,131.33772 c -1.999369,-0.80676 -1.453287,-6.75198 1.289506,-14.03891 3.444154,-9.15028 7.272214,-14.84075 14.930874,-22.19497 20.88663,-20.056372 56.33089,-20.137072 77.25897,-0.175905 C 194.66028,99.631042 201,107.54672 201,109.0003 c 0,0.38512 -3.9375,0.98257 -8.75,1.32766 -10.41035,0.74651 -26.28776,4.70878 -46.55159,11.61715 -20.69988,7.05703 -33.20019,10.07064 -41.37963,9.97594 -3.75033,-0.0434 -7.38128,-0.30592 -8.06878,-0.58333 z"
         id="path2" />
    </g>
  </g>
</svg>
