<?xml version="1.0" encoding="UTF-8" standalone="no"?>
<!-- Created with Inkscape (http://www.inkscape.org/) -->

<svg
   version="1.1"
   id="svg1"
   width="1600"
   height="1600"
   viewBox="0 0 1600 1600"
   xmlns="http://www.w3.org/2000/svg"
   xmlns:svg="http://www.w3.org/2000/svg">
  <defs
     id="defs1" />
  <g
     id="g1">
    <path
       style="fill:#000000"
       d="m 776.5,1039.9655 c -4.95,-0.5006 -10.8,-1.3397 -13,-1.8645 -2.2,-0.5249 -8.5,-1.4805 -14,-2.1237 -5.5,-0.6431 -15.175,-2.6945 -21.5,-4.5587 -6.325,-1.8641 -14.875,-4.3506 -19,-5.5254 -13.7779,-3.9241 -52.8604,-21.9729 -63.5,-29.32514 -2.75,-1.90033 -6.575,-4.17942 -8.5,-5.06465 -1.925,-0.88523 -4.625,-2.63321 -6,-3.88441 -1.375,-1.2512 -5.425,-4.32789 -9,-6.83708 -11.69608,-8.20914 -20.85149,-16.1182 -34.75602,-30.02464 -15.43309,-15.43519 -17.88775,-18.12521 -19.62547,-21.50728 -0.91843,-1.7875 -2.05425,-3.25 -2.52404,-3.25 -0.88805,0 -8.19532,-9.21444 -11.48125,-14.47779 -1.03772,-1.66221 -3.37606,-4.76248 -5.1963,-6.88947 -1.82023,-2.127 -3.58761,-5.1334 -3.9275,-6.6809 -0.33989,-1.54751 -1.28999,-3.37136 -2.11133,-4.05302 -2.30249,-1.91089 -6.60403,-9.72046 -6.13381,-11.13611 0.30903,-0.9304 7.10873,-1.57227 25.83757,-2.43897 17.49051,-0.80939 30.09648,-1.95161 40.41815,-3.66225 34.7479,-5.75886 57.19041,-9.74993 60.00343,-10.67072 C 668.78189,863.93562 689.57028,859 691.94789,859 c 1.36689,0 4.30029,-0.62494 6.51868,-1.38875 2.21839,-0.76381 8.08343,-2.61261 13.03343,-4.10845 4.95,-1.49585 10.90756,-3.33889 13.23901,-4.09566 2.33146,-0.75677 6.60646,-1.79743 9.5,-2.31258 5.07624,-0.90374 24.6505,-7.23338 27.79945,-8.98937 0.84615,-0.47185 3.4823,-1.18632 5.85811,-1.58772 2.37582,-0.40139 7.53351,-2.19301 11.46155,-3.98139 3.92803,-1.78837 10.29188,-4.25083 14.14188,-5.47213 3.85,-1.2213 11.725,-4.06803 17.5,-6.32607 5.775,-2.25804 12.75,-4.65513 15.5,-5.32686 2.75,-0.67173 10.26832,-3.24621 16.70738,-5.72108 6.43907,-2.47486 13.47498,-4.79838 15.63538,-5.16337 2.16039,-0.365 8.36707,-2.24783 13.79261,-4.18406 5.42555,-1.93624 14.13963,-4.63492 19.36463,-5.99708 5.225,-1.36215 15.125,-4.22372 22,-6.35905 6.875,-2.13532 14.75,-4.29634 17.5,-4.80226 2.75,-0.50592 12.2,-2.82714 21,-5.15827 21.50265,-5.69608 22.43288,-5.90577 30.75778,-6.93342 C 987.241,770.60074 995.675,769.22714 1002,768.04 c 46.5014,-8.72788 80.4142,-8.10355 102.2313,1.88207 10.3953,4.75788 10.3897,13.12597 -0.03,46.07793 -1.6523,5.225 -3.4989,11.61356 -4.1035,14.1968 -0.6046,2.58323 -2.7163,8.20823 -4.6927,12.5 -1.9764,4.29176 -4.2285,9.89051 -5.0047,12.44166 -0.7761,2.55115 -3.3678,8.17615 -5.7592,12.5 -2.3914,4.32385 -4.6826,8.91628 -5.0915,10.2054 -0.729,2.29807 -4.9549,9.20615 -8.6597,14.15614 -1.0291,1.375 -2.4808,3.85 -3.226,5.5 -1.2159,2.69212 -4.54,7.47816 -14.8816,21.42642 -1.8051,2.43453 -3.7319,4.90953 -4.2819,5.5 -0.55,0.59047 -2.343,2.87358 -3.9844,5.07358 -3.4115,4.57259 -9.4846,11.39843 -14.3406,16.11826 -1.8287,1.77746 -3.7714,3.68529 -4.3171,4.23963 -13.733,13.95154 -28.5647,26.64197 -38.53104,32.96824 -2.84522,1.80604 -5.77022,4.00532 -6.5,4.88727 -0.72977,0.88196 -2.90287,2.31974 -4.8291,3.19508 -1.92623,0.87534 -4.62623,2.40782 -6,3.40553 -5.73292,4.16356 -12.94371,8.47149 -15.91184,9.50619 -1.74591,0.6086 -4.39197,1.9568 -5.88015,2.996 -3.54036,2.4722 -13.04658,7.1796 -14.53793,7.1991 -0.64231,0.01 -6.06135,2.2584 -12.0423,5 -5.98096,2.7416 -11.50178,4.9847 -12.26849,4.9847 -0.76671,0 -6.22321,1.5518 -12.12554,3.4484 -16.29939,5.2375 -25.16718,7.4086 -34.88653,8.5415 -4.86474,0.5671 -12.44498,1.7095 -16.84498,2.5388 -9.7178,1.8316 -55.64247,2.7879 -69,1.4368 z m 53.64405,-2.9766 c 22.05432,-2.1532 42.60578,-5.5545 53.85595,-8.9134 3.575,-1.0673 11.225,-3.3143 17,-4.9933 5.775,-1.6789 15.05361,-5.0843 20.61914,-7.5674 5.56553,-2.4831 10.52793,-4.5148 11.02757,-4.5148 0.49964,0 3.59603,-1.4324 6.88086,-3.1832 3.28484,-1.7507 8.89743,-4.7177 12.47243,-6.5934 3.575,-1.87565 9.46948,-5.38257 13.09885,-7.79315 3.62936,-2.41058 7.46277,-4.73103 8.51869,-5.15656 1.85981,-0.7495 7.41885,-4.71938 19.88246,-14.19868 13.7327,-10.44453 23.0679,-19.13567 42.5075,-39.57501 4.0753,-4.28492 15.811,-19.27905 18.7843,-24 1.3857,-2.2 3.9547,-5.8 5.7091,-8 1.7544,-2.2 3.4981,-4.86021 3.875,-5.91157 0.8688,-2.42339 9.4393,-15.35619 10.6879,-16.12783 0.5149,-0.31825 0.939,-1.33958 0.9424,-2.26962 0,-0.93004 0.6217,-2.81598 1.374,-4.19098 0.7523,-1.375 3.2245,-5.82482 5.4938,-9.88849 2.2693,-4.06367 4.126,-8.06005 4.126,-8.88086 0,-0.8208 2.0302,-6.04598 4.5116,-11.61151 2.4814,-5.56553 5.5719,-13.94414 6.8677,-18.61914 1.2959,-4.675 3.9328,-14.125 5.8599,-21 1.9271,-6.875 3.8245,-15.98162 4.2164,-20.23692 l 0.7126,-7.73693 -7.8341,-3.57926 c -19.2967,-8.81632 -58.9234,-9.86706 -92.8341,-2.46159 -2.2,0.48044 -8.5,1.58804 -14,2.46133 -18.0121,2.85998 -21.83894,3.63928 -35.5,7.22926 -7.425,1.95122 -15.975,4.14392 -19,4.87267 -13.52384,3.25804 -22.00307,5.49394 -28.5,7.51521 -3.85,1.19778 -9.7,2.83697 -13,3.64264 -3.3,0.80567 -12.53842,3.65221 -20.52983,6.32565 -7.9914,2.67343 -16.7664,5.34271 -19.5,5.93173 -2.73359,0.58901 -5.87017,1.48944 -6.97017,2.00095 -5.10214,2.37254 -15.69062,6.12502 -22.55487,7.99328 -4.15518,1.13093 -11.35518,3.66992 -16,5.64221 -4.64482,1.97229 -10.24513,4.01309 -12.44513,4.53513 -4.51143,1.07051 -13.55084,4.31086 -16.22779,5.81716 -3.53083,1.98678 -14.25435,6.04768 -15.99208,6.05606 -0.97907,0.005 -6.94876,1.83353 -13.26596,4.06402 -6.31721,2.23049 -15.16323,4.91289 -19.65782,5.9609 -4.49459,1.048 -10.80097,2.78072 -14.01417,3.85049 -11.16393,3.71681 -19.90469,6.12666 -30.84218,8.50325 -6.05,1.3146 -17.075,3.96235 -24.5,5.88388 -7.425,1.92153 -16.425,3.79066 -20,4.15361 -3.575,0.36296 -9.425,1.28575 -13,2.05066 -25.07654,5.36537 -49.96369,8.50784 -73.0353,9.22208 C 548.98412,884.0374 540,884.52829 540,884.78833 c 0,0.26005 1.48236,2.55155 3.29413,5.09224 1.81178,2.54069 3.88519,6.06701 4.60759,7.83627 0.7224,1.76927 1.99338,3.78114 2.8244,4.47082 0.83102,0.68969 3.67981,4.4681 6.33065,8.39647 2.65083,3.92837 6.38806,8.80543 8.30495,10.83792 1.91688,2.0325 4.23866,4.90651 5.1595,6.3867 1.81339,2.91491 4.53865,5.8325 18.5344,19.84247 15.17957,15.19499 25.58054,24.15509 37.06592,31.93106 3.65041,2.47145 7.43616,5.37649 8.41277,6.45563 0.97662,1.07915 2.28425,1.96209 2.90585,1.96209 0.6216,0 5.16435,2.63457 10.09501,5.8546 4.93066,3.22004 9.92407,6.1585 11.09647,6.5298 1.1724,0.3714 5.65581,2.6836 9.96313,5.1382 4.30731,2.4546 9.42307,4.9536 11.36836,5.5533 1.94528,0.5996 7.17536,2.8214 11.6224,4.9372 4.44704,2.1158 10.88375,4.572 14.30379,5.4582 3.42005,0.8862 11.63282,3.3766 18.2506,5.5341 6.61778,2.1576 15.70607,4.4034 20.1962,4.9908 4.49013,0.5873 10.44836,1.5192 13.24051,2.0708 17.54402,3.4657 52.55763,4.8755 72.56742,2.9219 z M 1097.0161,893.00997 c -1.6985,-1.04974 0.7958,-7.2399 5.0993,-12.65516 3.5159,-4.42416 16.518,-30.83183 17.4074,-35.35481 0.3785,-1.925 1.2923,-4.85 2.0308,-6.5 21.1724,-47.3092 7.3121,-81.16274 -35.5536,-86.8389 -19.9277,-2.63877 -26.7283,-2.93046 -39.5,-1.69423 -6.6,0.63884 -18.975,1.78573 -27.5,2.54865 -13.9965,1.25258 -29.70121,3.77288 -39.76626,6.38171 -10.14309,2.62907 -17.32524,4.20154 -23.23374,5.08684 -3.575,0.53566 -11.225,2.34228 -17,4.01471 -5.775,1.67243 -15.26122,4.15443 -21.08049,5.51554 -5.81927,1.36112 -16.61927,4.46739 -24,6.90283 -7.38073,2.43543 -16.56951,5.20344 -20.41951,6.15113 -3.85,0.94768 -11.6299,3.44038 -17.28867,5.53933 -5.65877,2.09895 -11.82738,4.10494 -13.70803,4.45775 -1.88064,0.35281 -8.72574,2.66308 -15.21133,5.13393 -6.48558,2.47086 -14.04197,5.08453 -16.79197,5.80816 -2.75,0.72364 -9.725,3.21778 -15.5,5.54255 -5.775,2.32476 -12.525,4.80281 -15,5.50676 -2.475,0.70395 -8.79953,3.07977 -14.05451,5.27959 -5.25498,2.19982 -11.32998,4.29994 -13.5,4.66694 -2.17002,0.367 -8.44549,2.14237 -13.94549,3.94527 -16.03772,5.25719 -19.75998,6.3556 -24,7.08226 -2.2,0.37704 -9.9238,2.43394 -17.16401,4.57088 -7.2402,2.13695 -19.6152,5.22029 -27.5,6.85188 -7.88479,1.63158 -18.38599,3.88808 -23.33599,5.01445 -20.25027,4.60793 -35.55155,6.85602 -76,11.16603 -39.30096,4.18774 -94.04189,-2.046 -118.75273,-13.52323 -3.986,-1.85134 -8.2561,-3.67531 -9.48912,-4.05325 -14.97997,-4.5917 -40.45031,-31.9991 -46.65194,-50.19989 -5.95106,-17.46542 -4.43879,-65.23516 2.71805,-85.85769 6.2598,-18.03767 9.6244,-26.62085 11.44545,-29.19762 1.08928,-1.54131 3.60952,-6.10982 5.60054,-10.15226 1.99102,-4.04243 4.76874,-8.71502 6.17269,-10.38353 1.40396,-1.66851 3.43574,-4.66106 4.51506,-6.65012 7.9353,-14.62383 38.28607,-46.59723 59.942,-63.14665 2.475,-1.8914 4.95,-3.93695 5.5,-4.54568 0.55,-0.60874 3.025,-2.30545 5.5,-3.77048 2.475,-1.46502 6.075,-3.96683 8,-5.55957 8.90273,-7.36611 11.33677,-4.09233 4.08228,5.49064 -2.79526,3.69244 -5.08228,7.21889 -5.08228,7.83656 0,0.61766 -1.32979,2.73628 -2.95508,4.70805 -14.3964,17.46532 -26.7454,62.16733 -22.20253,80.37066 7.35548,29.47348 23.45246,40.93819 62.77974,44.71347 17.38417,1.66882 64.33271,-3.18847 84.87787,-8.78145 19.54115,-5.31966 27.35037,-7.3059 35.5,-9.02927 4.125,-0.8723 12.675,-3.31228 19,-5.42219 6.325,-2.10991 13.3,-4.14594 15.5,-4.52451 2.2,-0.37856 8.5,-2.2397 14,-4.13586 C 727.69123,685.39339 732.19969,684 734.18514,684 c 1.05852,0 3.8124,-0.85952 6.11972,-1.91005 2.30733,-1.05053 9.37014,-3.56217 15.69514,-5.58143 6.325,-2.01926 15.775,-5.25654 21,-7.19396 5.225,-1.93741 13.1,-4.53413 17.5,-5.77049 4.4,-1.23636 12.74003,-4.07588 18.53341,-6.31005 5.79337,-2.23417 12.31837,-4.39385 14.5,-4.79929 2.18162,-0.40543 8.01659,-2.28109 12.96659,-4.16811 4.95,-1.88703 12.99411,-4.51062 17.87581,-5.83019 4.88169,-1.31958 14.3003,-4.22589 20.93024,-6.45848 6.62995,-2.23258 16.81083,-5.17763 22.6242,-6.54456 5.81336,-1.36692 12.36975,-3.10673 14.56975,-3.86624 7.60846,-2.62667 19.02584,-5.54508 25.5,-6.5181 3.575,-0.5373 11.45,-2.13735 17.5,-3.55568 15.22417,-3.56907 29.79315,-6.2906 37.5,-7.00511 3.575,-0.33144 13.925,-1.55731 23,-2.72417 23.9426,-3.07852 70.0262,-3.10137 87.5,-0.0434 6.6,1.15502 14.25,2.40175 17,2.77052 6.962,0.93358 25.5472,6.98751 29,9.44645 0.55,0.39169 2.8178,1.23065 5.0396,1.86436 16.2139,4.62458 47.0203,35.00013 49.9041,49.20619 0.3899,1.92048 1.343,5.29178 2.1182,7.49178 4.0697,11.55087 4.0816,60.79565 0.016,67.37351 -0.3135,0.50714 -1.0566,4.42117 -1.6514,8.69784 -1.2136,8.72566 -12.1626,37.93693 -16.815,44.86163 -1.5028,2.23686 -4.0225,6.66667 -5.5993,9.84401 -1.5768,3.17735 -4.3621,7.52388 -6.1897,9.65897 -1.8275,2.13508 -3.3228,4.35592 -3.3228,4.9352 0,0.57928 -2.475,3.82702 -5.5,7.2172 -3.025,3.39018 -5.5,6.47534 -5.5,6.85591 0,2.06565 -33.9627,34.95082 -38.5412,37.3185 -1.63,0.84286 -3.8625,2.52707 -4.9612,3.74269 -1.0987,1.21562 -6.4976,5.22818 -11.9976,8.9168 -12.7577,8.55602 -11.8662,8.08746 -13.4839,7.08771 z m 11.3714,-9.91542 c 2.1381,-1.702 4.4222,-3.09455 5.0757,-3.09455 0.6535,0 2.2791,-1.18612 3.6125,-2.63583 1.3334,-1.44971 4.7748,-4.15584 7.6476,-6.01364 5.8738,-3.79848 37.1874,-34.68755 41.7185,-41.1529 1.618,-2.3087 3.2964,-4.19763 3.7297,-4.19763 0.4333,0 1.7465,-1.9125 2.9182,-4.25 1.1717,-2.3375 3.1472,-5.375 4.39,-6.75 10.4208,-11.52945 25.6484,-47.24468 29.4189,-69 1.1915,-6.875 2.6018,-14.93755 3.1339,-17.91678 7.0005,-39.19332 -7.4528,-77.10544 -36.5325,-95.82757 -3.85,-2.47872 -8.575,-5.53024 -10.5,-6.78116 -1.925,-1.25092 -4.625,-2.59148 -6,-2.97901 -1.375,-0.38754 -7.5851,-2.71909 -13.8002,-5.18123 -7.5145,-2.97692 -14.5497,-4.96724 -21,-5.94111 -5.3349,-0.80547 -14.4248,-2.18618 -20.1998,-3.06825 -19.2696,-2.94324 -69.3853,-1.98412 -89.5,1.71286 -2.75,0.50543 -9.95,1.37032 -16,1.92196 -6.05,0.55164 -17.3,2.41307 -25,4.1365 -7.7,1.72344 -20.3,4.38933 -28,5.92421 -7.7,1.53487 -16.25,3.49251 -19,4.3503 C 907.18144,631.7528 902.58269,633 899.9823,633 c -1.60294,0 -4.39221,0.63441 -6.19837,1.4098 -5.44829,2.33897 -21.88987,7.75113 -28.28393,9.31036 -6.48681,1.58186 -22.92159,6.96437 -25.72652,8.42562 -0.94958,0.4947 -5.67458,1.97829 -10.5,3.29687 -4.82541,1.31857 -11.92348,3.59866 -15.77348,5.06686 -3.85,1.4682 -11.31022,3.97083 -16.57826,5.5614 -5.26805,1.59058 -13.43314,4.44602 -18.14464,6.34544 -4.71151,1.89942 -10.30129,3.77063 -12.42174,4.15825 -2.12045,0.38761 -9.25536,2.72465 -15.85536,5.19342 -6.6,2.46877 -14.7,5.12541 -18,5.90366 -3.3,0.77825 -10.95,3.18595 -17,5.35045 -6.05,2.1645 -13.95911,4.61165 -17.5758,5.43811 -3.61669,0.82645 -12.16669,3.32291 -19,5.54767 -6.83331,2.22477 -14.8992,4.43572 -17.9242,4.91324 -3.025,0.47751 -8.65,1.78304 -12.5,2.90118 -16.79681,4.87822 -31.26638,8.22937 -37.87628,8.77215 -3.91804,0.32174 -8.47372,0.98876 -10.12372,1.48227 -18.91165,5.65644 -65.51344,5.88012 -82,0.39359 -2.2,-0.73214 -5.71413,-1.64255 -7.80918,-2.02314 -19.03439,-3.45784 -34.70229,-25.97341 -35.45259,-50.9472 -0.35755,-11.90083 -0.11231,-13.79251 4.2782,-33 1.79987,-7.87402 12.08813,-30.56476 17.07569,-37.6604 1.80169,-2.56322 4.17264,-6.41832 5.26876,-8.5669 1.09612,-2.14857 2.70083,-4.49399 3.56603,-5.21204 0.8652,-0.71805 1.57309,-1.78464 1.57309,-2.3702 0,-0.58555 -1.34005,0.21921 -2.97789,1.78836 -1.63784,1.56915 -4.52413,3.79084 -6.41399,4.93709 -17.92471,10.87184 -61.47129,55.11115 -69.70895,70.81787 -0.65371,1.24642 -2.3988,3.84122 -3.87798,5.76622 -6.77263,8.81388 -20.07924,38.51376 -24.866,55.5 -5.1747,18.36292 -5.49393,64.29289 -0.53517,77 7.5232,19.27863 29.23469,41.92732 46.64797,48.66159 2.62239,1.01416 5.54739,2.28138 6.5,2.81604 7.37376,4.13859 21.45014,8.4751 34.23201,10.54583 5.775,0.93559 13.2,2.18786 16.5,2.78284 7.75118,1.39751 66.54216,1.37009 76.5,-0.0357 4.125,-0.58234 14.25,-1.81273 22.5,-2.7342 14.6357,-1.63473 31.33754,-4.59161 48.5,-8.58642 4.675,-1.08817 12.1,-2.68402 16.5,-3.54632 7.59798,-1.48903 25.15452,-5.94807 36,-9.14334 2.75,-0.81019 7.925,-2.08013 11.5,-2.82207 3.575,-0.74194 11.225,-2.95782 17,-4.92418 5.775,-1.96636 14.1,-4.49791 18.5,-5.62567 4.4,-1.12775 12.275,-3.77392 17.5,-5.88036 5.225,-2.10644 10.625,-4.13966 12,-4.51827 1.375,-0.3786 8.67045,-3.11869 16.21212,-6.08908 C 802.75379,806.43032 809.69348,804 810.63366,804 c 1.60916,0 11.21482,-3.49156 17.86634,-6.49424 1.65,-0.74486 6.53201,-2.27782 10.8489,-3.4066 4.3169,-1.12877 12.71207,-3.83452 18.65595,-6.01278 5.94387,-2.17825 12.53686,-4.26786 14.65109,-4.64356 2.11424,-0.3757 11.04406,-3.05326 19.84406,-5.95014 8.8,-2.89688 18.025,-5.59248 20.5,-5.99023 2.475,-0.39775 11.475,-2.729 20,-5.18055 8.525,-2.45155 20.225,-5.32527 26,-6.38605 5.775,-1.06077 15.45,-3.04087 21.5,-4.40021 53.4367,-12.00643 114.3566,-11.36261 132.9133,1.40468 2.4459,1.68282 4.8778,3.05968 5.4042,3.05968 11.4628,0 18.3029,38.40886 11.2195,63 -6.9466,24.11598 -17.9795,50.26444 -24.8941,59 -5.6486,7.13617 -4.7331,7.44501 3.2446,1.09455 z M 531.5,708.96219 C 516.08231,707.67259 499,698.6943 499,691.88053 c 0,-9.65215 4.9212,-34.83365 9.43735,-48.29041 1.30871,-3.89957 3.0904,-9.83467 3.95931,-13.18912 1.51793,-5.86001 4.75466,-14.0015 8.50818,-21.401 0.97649,-1.925 2.09398,-4.78944 2.48331,-6.36541 0.38934,-1.57598 2.47153,-5.97774 4.6271,-9.7817 2.15556,-3.80396 4.78716,-8.87844 5.84799,-11.27663 1.06084,-2.3982 3.82935,-7.22143 6.15226,-10.71831 2.32291,-3.49687 4.57493,-7.25795 5.0045,-8.35795 0.42957,-1.1 2.2883,-3.9732 4.13052,-6.38488 1.84221,-2.41169 4.47448,-6.07853 5.84948,-8.14855 9.91955,-14.93353 41.30957,-48.03141 56.06991,-59.12053 4.13919,-3.10968 8.15099,-6.40728 8.91513,-7.32801 0.76413,-0.92073 3.47086,-2.72884 6.01496,-4.01803 2.5441,-1.28919 5.23399,-3.07701 5.97754,-3.97294 0.74356,-0.89593 6.00124,-4.3465 11.68375,-7.66794 5.68251,-3.32144 10.56465,-6.41568 10.8492,-6.87609 0.28455,-0.46042 2.1986,-1.3842 4.25344,-2.05285 2.05484,-0.66865 7.11107,-3.11547 11.23607,-5.43738 4.125,-2.32191 8.625,-4.55598 10,-4.96461 1.375,-0.40862 7.69793,-2.92499 14.05095,-5.59193 6.35303,-2.66693 13.55303,-5.1553 16,-5.52971 2.44698,-0.37442 5.23148,-1.08217 6.18778,-1.5728 1.85632,-0.95238 14.07973,-4.49176 24.76127,-7.1698 6.94516,-1.74127 26.31346,-4.00852 50.1884,-5.87504 19.75947,-1.54477 63.27469,1.64562 79.8116,5.85153 11.88632,3.0231 22.9989,6.2886 24.94553,7.33041 1.05764,0.56603 3.19007,1.03672 4.73873,1.04597 1.54866,0.009 6.64074,1.61288 11.31574,3.56362 4.675,1.95074 11.875,4.83086 16,6.40026 4.125,1.5694 10.71393,4.62982 14.64208,6.80093 3.92814,2.17111 8.53941,4.43459 10.24727,5.02995 1.70786,0.59537 4.56893,2.16358 6.35793,3.48492 1.78899,1.32135 5.95272,3.89128 9.25272,5.71096 3.3,1.81968 7.8,4.7478 10,6.50694 2.2,1.75914 5.8,4.12183 8,5.25043 2.2,1.1286 5.35,3.48339 7,5.23286 1.65,1.74948 4.15769,3.78598 5.57266,4.52556 9.44974,4.93927 47.27674,44.40921 57.92734,60.44332 1.375,2.07002 4.0073,5.73686 5.8495,8.14855 1.8422,2.41168 3.7259,5.35096 4.186,6.53173 0.4601,1.18076 2.9032,5.16553 5.4292,8.85503 5.534,8.08334 7.0846,11.0229 7.9594,15.08936 l 0.6651,3.09125 -24.2946,0.62847 c -25.7788,0.66686 -40.3316,2.08363 -63.7946,6.21062 -7.975,1.40275 -19,3.18275 -24.5,3.95557 -5.5,0.77282 -17.2,3.27179 -26,5.55327 -8.8,2.28149 -19.28743,4.76411 -23.30539,5.51695 -6.68081,1.25176 -14.13266,3.36912 -24.69461,7.0167 -2.2,0.75978 -7.95546,2.31481 -12.78991,3.45565 -4.83445,1.14083 -13.8037,3.84757 -19.93166,6.01498 -6.12797,2.16741 -13.19751,4.35564 -15.71009,4.86272 -2.51259,0.50709 -7.71834,2.10786 -11.56834,3.55727 -14.44313,5.43742 -18.13082,6.72389 -23,8.02366 -6.44928,1.72156 -10.10848,2.97914 -20.5,7.04535 -4.675,1.82934 -10.075,3.63653 -12,4.016 -1.925,0.37946 -9.35,2.8366 -16.5,5.4603 -7.15,2.6237 -14.575,5.10096 -16.5,5.50501 -1.925,0.40406 -8.95745,2.70596 -15.62766,5.11535 -6.67022,2.40939 -13.64522,4.65766 -15.5,4.99616 -1.85479,0.33849 -6.52234,1.70694 -10.37234,3.04099 -12.80415,4.43671 -21.93645,7.16924 -28,8.37805 -3.3,0.65788 -7.575,1.78371 -9.5,2.50185 -7.20018,2.68609 -17.91968,5.55733 -31.5,8.43733 -7.7,1.63295 -20.15953,4.31385 -27.68784,5.95756 -20.27258,4.42624 -51.71987,6.08691 -76.31216,4.02989 z m 61.12916,-4.36864 c 9.99611,-1.49065 16.68195,-2.90704 31.37084,-6.64587 4.125,-1.04995 10.2,-2.31319 13.5,-2.8072 3.3,-0.494 12.3,-2.79998 20,-5.12438 7.7,-2.32441 16.7,-4.80013 20,-5.5016 6.17533,-1.31268 24.79855,-7.13557 48.5,-15.16443 7.425,-2.51521 15.975,-5.17909 19,-5.91972 4.95493,-1.21315 10.96304,-3.26336 18,-6.14233 2.2245,-0.91009 9.68207,-3.3212 20,-6.46622 1.925,-0.58676 7.36363,-2.56162 12.08584,-4.38858 4.72221,-1.82697 10.79721,-3.85232 13.5,-4.50078 2.70279,-0.64847 10.76416,-3.32704 17.91416,-5.95238 7.15,-2.62534 16.15,-5.5465 20,-6.49146 3.85,-0.94497 9.025,-2.52317 11.5,-3.50712 7.53823,-2.99686 14.20359,-5.07705 20.5,-6.39781 3.3,-0.69223 9.6,-2.41549 14,-3.82948 14.23457,-4.57443 22.89281,-6.97475 28,-7.76244 2.75,-0.42414 10.175,-2.18059 16.5,-3.90323 6.325,-1.72264 16.675,-4.02843 23,-5.12398 6.325,-1.09555 17.8,-3.12166 25.5,-4.50248 7.7,-1.38081 17.375,-2.94609 21.5,-3.47841 4.125,-0.53231 10.425,-1.41337 14,-1.9579 3.575,-0.54454 17.6449,-1.29531 31.2665,-1.66838 28.8657,-0.79059 27.0211,0.60908 17.8588,-13.55116 -3.0939,-4.78158 -6.8643,-10.63158 -8.3786,-13 -14.5021,-22.68165 -48.0485,-59.13944 -65.42201,-71.09977 -2.23185,-1.53646 -5.13044,-3.93825 -6.4413,-5.33732 -1.31086,-1.39907 -3.76612,-3.12317 -5.45612,-3.83134 -1.69,-0.70817 -4.615,-2.60184 -6.5,-4.20815 C 975.18023,473.98872 962.28715,465.79315 954,461.1201 941.28909,453.95252 910.1986,440.74386 899.60908,438.01234 895.69909,437.00378 890.475,435.50301 888,434.6773 c -10.40975,-3.47292 -21.20281,-5.90412 -32,-7.2082 -6.325,-0.76393 -14.875,-1.8431 -19,-2.39815 -9.74444,-1.31121 -51.33417,-1.30378 -61,0.0109 -4.125,0.56105 -12.675,1.62178 -19,2.35717 -11.37152,1.32214 -23.32761,3.95742 -34,7.49404 -3.025,1.00242 -8.65,2.60721 -12.5,3.56618 -3.85,0.95897 -8.8,2.55722 -11,3.55167 -2.2,0.99444 -6.55963,2.96481 -9.68807,4.37858 -3.12845,1.41378 -6.32402,2.57051 -7.10127,2.57051 -0.77726,0 -5.96718,2.475 -11.53316,5.5 -5.56598,3.025 -10.78135,5.5 -11.58971,5.5 -0.80837,0 -1.72286,0.40953 -2.03221,0.91007 -0.30935,0.50054 -5.25224,3.65126 -10.9842,7.0016 -5.73195,3.35034 -11.85378,7.29652 -13.60406,8.76928 -1.75028,1.47277 -4.4421,3.38455 -5.98182,4.2484 -14.5796,8.17985 -62.84441,56.53703 -69.99364,70.12758 -0.70684,1.34369 -2.60145,3.95799 -4.21024,5.80956 -1.60879,1.85157 -3.67988,5.00157 -4.6024,7 -0.92253,1.99843 -3.81525,6.67264 -6.42827,10.38713 -2.61302,3.71449 -4.75372,7.31449 -4.75711,8 -0.007,1.33942 -0.76962,2.85351 -6.27069,12.44357 -1.95517,3.40846 -3.86618,7.23346 -4.24669,8.5 -0.3805,1.26655 -2.89337,7.31914 -5.58414,13.45022 -2.69078,6.13107 -4.89232,11.86794 -4.89232,12.7486 0,0.88065 -1.52195,6.21432 -3.38211,11.85259 -4.85691,14.72164 -7.29072,24.31894 -8.05194,31.7514 -0.36615,3.575 -1.1697,9.30512 -1.78567,12.7336 -3.17616,17.6785 38.75235,26.47961 89.84888,18.85995 z"
       id="path1" />
  </g>
</svg>
