<?xml version="1.0" encoding="UTF-8" standalone="no"?>
<!-- Created with Inkscape (http://www.inkscape.org/) -->

<svg
   version="1.1"
   id="svg1"
   width="1600"
   height="1600"
   viewBox="0 0 1600 1600"
   xmlns="http://www.w3.org/2000/svg"
   xmlns:svg="http://www.w3.org/2000/svg">
  <defs
     id="defs1" />
  <g
     id="g1">
    <g
       id="g2">
      <path
         style="display:inline;fill:#000000;fill-opacity:1"
         d="m 783,1037.8626 c -6.875,-0.4685 -15.875,-1.5158 -20,-2.3274 -4.125,-0.8116 -11.325,-1.9276 -16,-2.4802 -4.675,-0.5526 -13,-2.3861 -18.5,-4.0745 -5.5,-1.6885 -11.35,-3.4834 -13,-3.9888 -1.65,-0.5053 -5.7,-1.6455 -9,-2.5337 -5.90421,-1.5891 -10.09647,-3.2743 -20.01435,-8.0457 -2.7579,-1.3268 -5.58877,-2.4123 -6.29083,-2.4123 -1.26845,0 -14.8952,-7.0363 -18.66733,-9.639 -1.08487,-0.7485 -2.51617,-1.361 -3.18066,-1.361 -1.41348,0 -6.34385,-2.98805 -13.61274,-8.25 -2.84914,-2.0625 -5.79164,-3.75 -6.53888,-3.75 -0.74724,0 -3.2878,-1.58082 -5.64568,-3.51293 -2.35789,-1.93211 -6.11595,-4.74461 -8.35125,-6.25 C 618.92144,975.68333 608.9399,967.68719 602.68133,962 592.8501,953.06632 579,939.10675 579,938.13149 c 0,-0.54819 -0.7875,-1.26148 -1.75,-1.58508 -0.9625,-0.3236 -2.875,-2.19916 -4.25,-4.16791 -1.375,-1.96875 -4.63213,-6.00814 -7.23806,-8.97643 -2.60594,-2.96828 -6.41741,-7.98555 -8.46995,-11.14947 -2.05254,-3.16393 -5.20791,-7.4414 -7.01194,-9.50548 -1.80403,-2.06409 -3.2849,-4.31409 -3.29084,-5 C 546.98328,897.0612 544.93434,893.575 542.436,890 l -4.54242,-6.5 22.30321,-0.61085 c 21.51866,-0.58936 33.17883,-1.83676 55.30321,-5.91633 5.5,-1.01416 16.075,-2.80215 23.5,-3.97332 13.91069,-2.19418 31.0946,-5.93861 39,-8.49822 2.475,-0.80136 6.525,-1.7279 9,-2.05897 5.88405,-0.78709 19.12131,-4.43968 36.67632,-10.12018 3.94697,-1.27717 8.22197,-2.33541 9.5,-2.35163 1.27802,-0.0162 8.84868,-2.29886 16.82368,-5.07252 7.975,-2.77367 16.41126,-5.38886 18.74725,-5.81155 2.33598,-0.42269 5.71098,-1.48712 7.5,-2.36541 C 785.06138,832.39388 799.49989,827 802.26879,827 c 0.69346,0 2.94003,-0.9 4.99239,-2 2.05237,-1.1 4.30237,-2 5,-2 0.69764,0 2.83677,-0.83948 4.75363,-1.86551 1.91685,-1.02603 5.8712,-2.37632 8.78742,-3.00064 4.8797,-1.04468 16.87616,-5.24161 25.09422,-8.77914 1.86805,-0.80411 5.64507,-1.88847 8.39339,-2.40968 2.74832,-0.52121 9.99492,-2.73763 16.10355,-4.92538 6.10864,-2.18776 14.03161,-4.66241 17.60661,-5.49924 7.0098,-1.64084 17.1502,-4.64165 26.1003,-7.72375 3.08017,-1.0607 8.03017,-2.29583 11,-2.74473 2.96984,-0.4489 8.9997,-1.80161 13.3997,-3.00602 22.72717,-6.22107 26.54302,-7.15898 33,-8.11119 3.85,-0.56776 10.15,-1.66859 14,-2.4463 3.85,-0.77771 9.25,-1.69218 12,-2.03217 2.75,-0.33999 6.35,-1.02755 8,-1.52792 5.0426,-1.52917 39.1603,-4.92833 49.4663,-4.92833 8.8292,0 24.1899,1.73686 31.3804,3.54823 2.5599,0.64487 12.8271,5.17096 16.6533,7.34123 1.1714,0.66446 1.4282,2.46737 1.1724,8.23069 -0.3413,7.68828 -0.5936,8.79729 -7.0245,30.87985 -2.1623,7.425 -4.2399,14.85 -4.6168,16.5 -0.687,3.00716 -1.7741,5.68757 -6.084,15 -1.2727,2.75 -2.6339,6.35 -3.0249,8 -0.6933,2.92542 -4.9726,11.46066 -9.2754,18.5 -1.1766,1.925 -2.141,4.4574 -2.1431,5.62756 0,1.17015 -0.6758,2.68538 -1.4973,3.36717 -0.8216,0.68179 -2.8796,3.66189 -4.5734,6.62244 -1.6939,2.96056 -3.4255,5.38283 -3.8481,5.38283 -0.4226,0 -1.3076,1.8 -1.9668,4 -0.6591,2.2 -1.5978,4 -2.0859,4 -0.4881,0 -3.1525,3.38649 -5.9209,7.52554 -7.3047,10.92139 -20.4065,27.35393 -21.8613,27.41876 -0.6875,0.0306 -1.25,0.57144 -1.25,1.20179 0,2.96078 -36.15699,35.91974 -46.5,42.38715 -1.65,1.03174 -5.025,3.5232 -7.5,5.53659 -2.475,2.01338 -5.57384,3.99612 -6.88631,4.40608 -1.31246,0.40997 -4.38443,2.2706 -6.82659,4.13474 -2.44216,1.86414 -4.83829,3.38935 -5.32474,3.38935 -0.48645,0 -1.68948,0.83658 -2.6734,1.85906 -0.98393,1.02248 -3.03414,2.15794 -4.55602,2.52334 -1.52188,0.3653 -5.21276,2.2288 -8.20196,4.1409 -2.9892,1.9122 -6.01902,3.491 -6.73294,3.5085 -0.71392,0.018 -2.17155,0.6925 -3.23917,1.5 -1.06762,0.8075 -2.60706,1.4682 -3.42097,1.4682 -1.3301,0 -10.61813,4.0425 -17.1379,7.459 -1.375,0.7205 -4.075,1.614 -6,1.9855 -1.925,0.3715 -8.225,2.1899 -14,4.0408 -15.84065,5.0769 -24.76381,7.262 -32.5,7.9586 -3.85,0.3467 -10.375,1.2798 -14.5,2.0737 -8.49458,1.6348 -34.54755,3.5543 -45.32955,3.3397 -3.94375,-0.078 -12.79545,-0.5261 -19.67045,-0.9947 z m 317,-149.63476 c 0,-0.42468 1.311,-2.36261 2.9133,-4.30651 2.4719,-2.99886 5.4725,-8.64158 17.6822,-33.25237 0.7725,-1.55707 1.4045,-3.72365 1.4045,-4.81462 0,-1.09097 0.8525,-4.092 1.8945,-6.66896 5.9889,-14.81165 8.0997,-25.47481 8.3927,-42.39795 0.3073,-17.74515 -0.3486,-20.44585 -6.9898,-28.78148 -3.07,-3.85327 -5.9452,-7.00595 -6.3895,-7.00595 -0.4442,0 -2.8607,-1.3856 -5.37,-3.0791 -8.6739,-5.85393 -14.8757,-7.54314 -34.7218,-9.45727 -18.1305,-1.74867 -18.8513,-1.74279 -46.3665,0.37811 -15.3723,1.18491 -29.5246,2.57359 -31.4496,3.08595 -1.925,0.51237 -6.2,1.41924 -9.5,2.01528 -3.3,0.59604 -9.825,1.95538 -14.5,3.02075 -16.1587,3.68235 -17.52512,3.96976 -23.5,4.9428 -3.3,0.53743 -9.375,1.95544 -13.5,3.15113 -4.125,1.19569 -12.9,3.52431 -19.5,5.17471 -6.6,1.6504 -18.3,5.02661 -26,7.50269 -7.7,2.47608 -17.825,5.52669 -22.5,6.77912 -10.35052,2.77292 -17.66813,5.20295 -21,6.97369 -1.375,0.73076 -4.3,1.64777 -6.5,2.03782 -5.05791,0.89675 -14.09086,3.85557 -18,5.89606 -1.65,0.86127 -3.675,1.58398 -4.5,1.60603 -0.825,0.022 -3.3,0.90955 -5.5,1.97223 -2.2,1.06268 -5.125,1.96268 -6.5,2 -1.375,0.0373 -4.3,0.93732 -6.5,2 -2.2,1.06268 -4.68737,1.94741 -5.52749,1.96607 -0.84013,0.0187 -2.41513,0.64397 -3.5,1.38956 -1.08488,0.7456 -5.79751,2.58047 -10.47251,4.07748 -4.675,1.49702 -9.85,3.33914 -11.5,4.09362 -8.29892,3.79472 -15.53906,6.38711 -20.5,7.34019 -3.025,0.58115 -11.575,3.13664 -19,5.67887 -7.425,2.54222 -15.75,4.9917 -18.5,5.44328 -2.75,0.45158 -9.05,2.04715 -14,3.54571 -4.95,1.49857 -11.475,3.35142 -14.5,4.11747 -3.025,0.76604 -7.075,1.79403 -9,2.28441 -1.925,0.49038 -7.1,1.58003 -11.5,2.42143 -4.4,0.84141 -11.825,2.44396 -16.5,3.56122 -13.85088,3.31018 -35.02459,6.81097 -59,9.75485 -19.99536,2.45519 -25.7282,2.75699 -51.5,2.71117 -18.34649,-0.0326 -31.38786,-0.49897 -35.5,-1.26946 -3.575,-0.66984 -11.675,-2.08977 -18,-3.1554 -20.66841,-3.4822 -37.36336,-10.06571 -53.97977,-21.28647 -11.30539,-7.63433 -20.41083,-17.45835 -27.50347,-29.674 -5.88871,-10.14214 -7.44445,-15.89476 -8.73706,-32.30683 -1.94632,-24.71212 0.93605,-51.46777 7.29256,-67.69317 1.18508,-3.025 2.79766,-7.525 3.5835,-10 0.78585,-2.475 2.58651,-6.75 4.00147,-9.5 1.41496,-2.75 4.32492,-8.45827 6.46659,-12.68503 2.14166,-4.22677 5.41515,-9.67793 7.27441,-12.1137 1.85926,-2.43576 3.68474,-5.38733 4.05663,-6.55904 0.37189,-1.17172 1.39574,-2.84998 2.27524,-3.72947 0.8795,-0.8795 4.11252,-4.86614 7.18449,-8.85921 10.66865,-13.86751 21.20573,-25.16317 34.698,-37.19591 8.18539,-7.29994 22.4803,-18.8018 25.12988,-20.21982 1.03464,-0.55372 4.0951,-2.83625 6.80102,-5.07229 2.70592,-2.23604 5.30871,-4.06553 5.78399,-4.06553 0.47528,0 -0.77017,2.1375 -2.76767,4.75 -1.99749,2.6125 -4.07826,5.82508 -4.62393,7.13906 -0.54567,1.31399 -1.99324,3.57883 -3.21683,5.03299 -1.22359,1.45415 -3.96299,6.22907 -6.08754,10.61093 -2.12456,4.38186 -4.34589,8.86702 -4.9363,9.96702 -3.93672,7.33453 -5.96242,12.49759 -6.71316,17.11031 -0.47417,2.9134 -1.32237,6.15706 -1.88489,7.20814 -0.56251,1.05107 -1.80553,7.31059 -2.76226,13.91005 -1.52969,10.55168 -1.57915,13.01056 -0.41009,20.38525 0.73118,4.61244 2.11253,10.18625 3.06966,12.38625 0.95713,2.2 2.01016,5.14449 2.34007,6.54332 0.85525,3.62638 10.38508,13.79992 17.50127,18.68341 16.69251,11.45525 50.4627,15.21238 87.66419,9.75315 9.35,-1.37209 20.6,-2.98968 25,-3.59465 7.16742,-0.98547 15.67265,-3.01141 38,-9.05157 3.85,-1.04153 9.4681,-2.32378 12.48466,-2.84944 5.87271,-1.02337 20.58127,-5.35113 25.51534,-7.50747 1.65,-0.72111 4.8,-1.61778 7,-1.99261 4.71015,-0.80251 16.16184,-4.30022 26,-7.94124 3.85,-1.42485 9.7,-3.21287 13,-3.97338 3.3,-0.76051 9.15,-2.59229 13,-4.07062 3.85,-1.47833 10.6,-3.78852 15,-5.13376 4.4,-1.34523 9.35,-2.92556 11,-3.51184 8.83451,-3.13907 11.27893,-4.0715 14.15113,-5.39799 1.73312,-0.80042 3.74012,-1.45531 4.46,-1.45531 1.80323,0 28.12932,-9.02797 29.48234,-10.11034 0.60141,-0.4811 4.20141,-1.51904 8,-2.30653 3.79859,-0.78748 12.30653,-3.47343 18.90653,-5.96876 6.6,-2.49533 12.77185,-4.55438 13.71522,-4.57567 0.94337,-0.0213 9.26837,-2.54188 18.5,-5.60132 9.23163,-3.05944 20.36829,-6.245 24.74814,-7.07901 4.37985,-0.83401 8.84913,-1.99043 9.93174,-2.56982 2.24408,-1.20099 9.89646,-3.26119 20.1049,-5.41271 15.86073,-3.34278 20.41919,-4.33234 29,-6.29538 16.81027,-3.84569 28.97717,-5.95068 38,-6.57436 4.95,-0.34216 12.825,-1.2572 17.5,-2.03343 21.0268,-3.49127 71.5338,-3.46073 89.5,0.0541 4.4,0.86081 11.15,1.94484 15,2.40897 3.85,0.46413 10.15,2.04296 14,3.50853 3.85,1.46556 8.5725,3.14166 10.4944,3.72468 1.9219,0.58301 4.3846,1.6835 5.4725,2.44553 1.088,0.76203 2.8905,1.3988 4.0056,1.41504 3.4568,0.0503 27.1322,16.14959 28.0632,19.08298 0.3116,0.98185 1.4252,2.05768 2.4745,2.39073 1.8929,0.60079 7.9525,7.49807 8.0304,9.14066 0.022,0.47086 1.3724,2.4141 3,4.31833 1.6277,1.90422 2.9594,3.89379 2.9594,4.42126 0,0.52746 0.6826,1.71333 1.517,2.63526 3.474,3.83879 8.3237,29.29291 8.3796,43.98125 0.031,8.16203 -2.4669,29.93298 -4.8764,42.5 -1.4174,7.39293 -5.7256,20.80264 -8.1877,25.48519 -1.0079,1.91686 -1.8478,4.16686 -1.8664,5 -0.019,0.83315 -0.9034,3.31481 -1.9661,5.51481 -1.0627,2.2 -1.9474,4.421 -1.9661,4.93555 -0.019,0.51455 -0.8824,1.86455 -1.9194,3 -1.0371,1.13545 -3.7408,5.59731 -6.0084,9.91525 -2.2675,4.31794 -5.6941,9.68644 -7.6145,11.93 -1.9204,2.24356 -3.4916,4.64116 -3.4916,5.328 0,0.68684 -1.6381,2.96834 -3.6403,5.07 -2.0022,2.10166 -4.3647,4.94666 -5.25,6.32222 -1.4282,2.21905 -22.0612,24.10354 -24.6097,26.10238 -0.55,0.43138 -3.8086,3.28459 -7.2413,6.34046 -3.4327,3.05588 -6.6189,5.55614 -7.0804,5.55614 -0.4615,0 -3.2779,2.24723 -6.2587,4.99385 -2.9808,2.74662 -5.9008,4.99662 -6.489,5 -0.5882,0.003 -3.4819,1.80615 -6.4306,4.00615 -5.2934,3.94938 -7,4.73635 -7,3.22784 z M 531.14423,706.35652 c -11.43711,-1.37793 -12.63362,-1.80888 -24.78044,-8.9251 -5.20902,-3.05171 -5.34453,-3.81411 -3.29004,-18.50982 2.27187,-16.25066 3.61976,-22.1446 8.31425,-36.35603 1.9866,-6.01393 3.612,-11.68919 3.612,-12.61168 0,-1.52651 1.19349,-4.40245 8.60421,-20.73353 1.31768,-2.90379 2.4058,-6.05379 2.41803,-7 0.0122,-0.9462 0.90222,-2.84536 1.97776,-4.22036 1.07554,-1.375 1.96553,-3.00181 1.97776,-3.61514 0.0122,-0.61333 0.93187,-2.27155 2.04364,-3.68494 1.11178,-1.41339 2.66486,-4.39354 3.4513,-6.62256 0.78645,-2.22901 3.38151,-6.87079 5.76681,-10.31506 2.38531,-3.44426 5.63081,-8.8498 7.21222,-12.0123 1.58142,-3.1625 3.24534,-5.75 3.6976,-5.75 0.45226,0 2.05114,-1.9125 3.55307,-4.25 1.50192,-2.3375 3.99896,-5.825 5.54896,-7.75 1.55001,-1.925 3.14005,-3.95716 3.53342,-4.51591 1.79904,-2.55538 10.84533,-13.24245 13.15042,-15.53559 1.41064,-1.40333 4.17208,-4.32833 6.13654,-6.5 1.96445,-2.17168 8.03945,-8.06161 13.5,-13.08875 13.14073,-12.09774 14.84588,-13.59217 17.52551,-15.35975 1.25068,-0.825 4.15327,-3.1875 6.45019,-5.25 2.29692,-2.0625 4.6394,-3.75 5.20551,-3.75 0.5661,0 3.10337,-1.71392 5.63836,-3.80872 2.53499,-2.09479 7.42149,-5.30124 10.85888,-7.12544 3.4374,-1.82421 6.96024,-3.93528 7.82855,-4.69129 0.86831,-0.756 2.03606,-1.37455 2.59501,-1.37455 0.55895,0 1.83076,-0.9 2.82625,-2 0.99549,-1.1 2.52773,-2.00663 3.40499,-2.01474 0.87725,-0.008 2.56805,-0.57061 3.75733,-1.25 7.16047,-4.09053 18.49495,-9.73765 19.57215,-9.75135 0.69604,-0.009 5.65696,-2.00275 11.02426,-4.43091 5.36729,-2.42815 12.24139,-4.93023 15.27577,-5.56016 3.03438,-0.62994 9.44295,-2.40897 14.24127,-3.95342 4.79833,-1.54444 10.29923,-3.12964 12.22423,-3.52266 1.925,-0.39301 5.525,-1.29977 8,-2.01502 2.475,-0.71524 10.125,-1.81245 17,-2.43823 6.875,-0.62578 15.2,-1.5331 18.5,-2.01626 7.71488,-1.12957 46.16747,-1.14162 54,-0.0169 3.3,0.47385 10.95,1.35993 17,1.96906 14.18019,1.42769 24.14857,3.58315 39,8.43295 4.4,1.43684 10.17072,3.04702 12.82383,3.57817 2.6531,0.53115 6.2531,1.6092 8,2.39565 8.21985,3.70059 13.58306,5.93627 18.17617,7.57683 2.75,0.98225 7.925,3.41329 11.5,5.40232 3.575,1.98903 7.625,4.10275 9,4.69716 6.91282,2.98838 23.30203,12.72133 27.90299,16.57055 1.87164,1.56585 5.31822,3.97199 7.65905,5.34699 3.82771,2.24838 6.29303,4.0878 18.40956,13.73571 5.0766,4.04231 36.1722,35.18949 39.0612,39.12605 1.357,1.84896 4.4966,5.89896 6.9771,9 2.4804,3.10103 5.7493,7.55074 7.2642,9.88824 1.5148,2.3375 3.1243,4.25 3.5766,4.25 0.4522,0 2.114,2.5875 3.6928,5.75 1.5788,3.1625 3.1149,5.975 3.4135,6.25 1.8958,1.74573 9.9035,14.98223 10.4357,17.25 l 0.6454,2.75 -18.769,0.0103 c -19.2757,0.0106 -38.1812,1.19175 -48.7691,3.04694 -20.08018,3.5184 -29.86304,5.13268 -36.5,6.0229 -9.47959,1.2715 -21.88924,3.69856 -29,5.67179 -3.025,0.83943 -7.975,2.09562 -11,2.79152 -3.025,0.6959 -6.85,1.73 -8.5,2.29801 -1.65,0.56801 -5.7,1.45559 -9,1.97239 -3.3,0.5168 -9.15,1.94122 -13,3.16537 -11.66471,3.70894 -19.69276,6.02374 -26,7.49685 -3.3,0.77074 -11.4,3.19906 -18,5.39626 -6.6,2.19721 -15.6,5.1284 -20,6.51377 -4.4,1.38537 -11.15,3.70198 -15,5.14804 -3.85,1.44605 -8.575,3.07532 -10.5,3.6206 -10.87308,3.07992 -17.78761,5.28247 -20,6.37077 -5.35812,2.63572 -13.65635,5.47476 -16.01933,5.48063 -1.36437,0.003 -3.74098,0.66353 -5.28135,1.46699 -1.54037,0.80346 -4.24037,1.90117 -6,2.43937 -1.75963,0.5382 -6.34932,2.12974 -10.19932,3.53674 -3.85,1.40701 -9.9232,3.29684 -13.496,4.19963 -3.57281,0.90278 -7.17281,2.02315 -8,2.48971 -3.19294,1.80087 -18.50502,6.8614 -20.76114,6.8614 -1.30589,0 -3.3365,0.51493 -4.51247,1.14429 -1.17598,0.62936 -4.18389,1.73064 -6.68426,2.44728 -6.78126,1.9436 -14.14826,4.44798 -17.69726,6.01611 -1.73312,0.76577 -4.22255,1.39232 -5.53207,1.39232 -2.4368,0 -6.98479,1.15711 -19.3168,4.91461 -8.68851,2.64734 -19.68356,5.4248 -29.5,7.45199 -4.125,0.85185 -12.45,2.692 -18.5,4.08921 -25.91537,5.985 -56.8761,7.85001 -81.35577,4.90071 z"
         id="path2" />
    </g>
  </g>
</svg>
