<?xml version="1.0" encoding="UTF-8" standalone="no"?>
<svg
   viewBox="0 0 152.42952 113.85402"
   version="1.1"
   id="svg1"
   width="152.42952"
   height="113.85402"
   xmlns="http://www.w3.org/2000/svg"
   xmlns:svg="http://www.w3.org/2000/svg">
  <defs
     id="defs1" />
  <path
     d="m 62.692969,112.4849 c -11.595,-2.818 -24.902,-11.895 -32.215,-21.975996 l -2.89,-3.981 9.81,-1.231 c 11.965,-1.502 23.283,-4.354 37.809,-9.528 24.598,-8.76 46.915001,-13.396 54.875001,-11.399 3.193,0.802 3.45,3.84 0.948,11.193 -6.004,17.65 -21.708,32.103996 -40.039001,36.853996 -7.286,1.889 -20.673,1.92 -28.298,0.068 z M 136.26697,79.035904 c 3.26,-8.024 3.216,-12.969 -0.145,-16.12 -2.44,-2.289 -3.241,-2.422 -14.25,-2.366 -13.088,0.067 -20.617,1.77 -44.425001,10.056 -38.328,13.339 -62.337,14.788 -72.7350003,4.39 -8.217,-8.217 -5.45500003,-23.925 6.4750003,-36.81 5.88,-6.351 8.01,-7.347 5.438,-2.542 -2.136,3.991 -1.869,14.64 0.431,17.18 2.843,3.142 10.295,4.33 19.402,3.096 8.816,-1.196 15.678,-3.072 36.249,-9.913 29.835001,-9.921 42.000001,-12.504 55.478001,-11.78 19.48,1.049 27.364,10.124 23.134,26.633 -2.142,8.362 -8.221,17.58 -14.58,22.108 l -2.913,2.074 z m -114.310001,-27.707 c -2,-0.807 -1.453,-6.752 1.29,-14.04 3.444,-9.15 7.272,-14.84 14.93,-22.194 20.887,-20.0570006 56.331,-20.1370006 77.260001,-0.176 4.93,4.702 11.27,12.619 11.27,14.072 0,0.385 -3.938,0.983 -8.75,1.328 -10.41,0.746 -26.288001,4.709 -46.552001,11.617 -20.7,7.057 -33.2,10.07 -41.38,9.976 -3.75,-0.043 -7.38,-0.306 -8.068,-0.583 z"
     style="fill:#000000;fill-opacity:1;stroke:none;stroke-opacity:1"
     id="path1" />
</svg>
