<svg xmlns="http://www.w3.org/2000/svg" viewBox="0 0 1600 1600"><path d="M783 1037.863c-6.875-.469-15.875-1.516-20-2.328-4.125-.811-11.325-1.927-16-2.48-4.675-.553-13-2.386-18.5-4.074l-13-3.99c-1.65-.505-5.7-1.645-9-2.533-5.904-1.59-10.096-3.274-20.014-8.046-2.758-1.326-5.59-2.412-6.291-2.412-1.269 0-14.895-7.036-18.668-9.639-1.084-.748-2.516-1.361-3.18-1.361-1.414 0-6.344-2.988-13.613-8.25-2.85-2.062-5.792-3.75-6.539-3.75-.747 0-3.288-1.58-5.645-3.513-2.358-1.932-6.116-4.745-8.352-6.25-5.277-3.554-15.258-11.55-21.517-17.237-9.83-8.934-23.681-22.893-23.681-23.869 0-.548-.787-1.261-1.75-1.585-.963-.323-2.875-2.199-4.25-4.168-1.375-1.968-4.632-6.008-7.238-8.976-2.606-2.968-6.417-7.985-8.47-11.15-2.053-3.163-5.208-7.44-7.012-9.505-1.804-2.064-3.285-4.314-3.29-5-.007-.686-2.056-4.172-4.554-7.747l-4.542-6.5 22.303-.61c21.518-.59 33.179-1.838 55.303-5.917 5.5-1.014 16.075-2.802 23.5-3.974 13.91-2.194 31.095-5.938 39-8.498 2.475-.801 6.525-1.728 9-2.059 5.884-.787 19.121-4.44 36.676-10.12 3.947-1.277 8.222-2.335 9.5-2.351 1.278-.017 8.849-2.3 16.824-5.073 7.975-2.774 16.411-5.389 18.747-5.812 2.336-.422 5.711-1.487 7.5-2.365C785.061 832.394 799.5 827 802.27 827c.693 0 2.94-.9 4.992-2 2.053-1.1 4.303-2 5-2 .698 0 2.837-.84 4.754-1.866 1.917-1.026 5.871-2.376 8.787-3 4.88-1.045 16.876-5.242 25.094-8.78 1.869-.803 5.646-1.888 8.394-2.409 2.748-.521 9.995-2.738 16.103-4.925 6.109-2.188 14.032-4.663 17.607-5.5 7.01-1.64 17.15-4.641 26.1-7.723 3.08-1.061 8.03-2.296 11-2.745 2.97-.449 9-1.802 13.4-3.006 22.727-6.221 26.543-7.16 33-8.111 3.85-.568 10.15-1.669 14-2.447 3.85-.777 9.25-1.692 12-2.032 2.75-.34 6.35-1.027 8-1.528 5.043-1.529 39.16-4.928 49.466-4.928 8.83 0 24.19 1.737 31.38 3.548 2.56.645 12.828 5.171 16.654 7.341 1.171.665 1.428 2.468 1.172 8.231-.34 7.688-.593 8.797-7.024 30.88-2.162 7.425-4.24 14.85-4.617 16.5-.687 3.007-1.774 5.688-6.084 15-1.273 2.75-2.634 6.35-3.025 8-.693 2.925-4.972 11.46-9.275 18.5-1.177 1.925-2.141 4.457-2.143 5.628 0 1.17-.676 2.685-1.498 3.367-.821.682-2.88 3.662-4.573 6.622-1.694 2.96-3.425 5.383-3.848 5.383-.423 0-1.308 1.8-1.967 4s-1.598 4-2.086 4c-.488 0-3.152 3.386-5.92 7.526-7.305 10.92-20.407 27.353-21.862 27.418-.688.03-1.25.572-1.25 1.202 0 2.96-36.157 35.92-46.5 42.387-1.65 1.032-5.025 3.523-7.5 5.537-2.475 2.013-5.574 3.996-6.886 4.406-1.313.41-4.385 2.27-6.827 4.135-2.442 1.864-4.838 3.389-5.325 3.389-.486 0-1.69.837-2.673 1.86-.984 1.022-3.034 2.157-4.556 2.522-1.522.366-5.213 2.23-8.202 4.141-2.99 1.913-6.019 3.491-6.733 3.509-.714.018-2.172.692-3.24 1.5-1.067.807-2.606 1.468-3.42 1.468-1.33 0-10.618 4.043-17.138 7.459-1.375.72-4.075 1.614-6 1.986-1.925.371-8.225 2.19-14 4.04-15.84 5.077-24.764 7.262-32.5 7.959-3.85.347-10.375 1.28-14.5 2.074-8.495 1.634-34.548 3.554-45.33 3.34-3.943-.079-12.795-.527-19.67-.995zm317-149.635c0-.425 1.311-2.363 2.913-4.307 2.472-2.999 5.473-8.641 17.682-33.252.773-1.557 1.405-3.724 1.405-4.815 0-1.09.853-4.092 1.895-6.669 5.988-14.811 8.1-25.474 8.392-42.398.308-17.745-.348-20.445-6.99-28.781-3.07-3.853-5.945-7.006-6.39-7.006-.443 0-2.86-1.386-5.37-3.08-8.673-5.853-14.875-7.542-34.72-9.456-18.131-1.749-18.852-1.743-46.367.378-15.373 1.185-29.525 2.573-31.45 3.086-1.925.512-6.2 1.419-9.5 2.015-3.3.596-9.825 1.955-14.5 3.02-16.159 3.683-17.525 3.97-23.5 4.944-3.3.537-9.375 1.955-13.5 3.15-4.125 1.196-12.9 3.525-19.5 5.175s-18.3 5.027-26 7.503c-7.7 2.476-17.825 5.527-22.5 6.78-10.35 2.772-17.668 5.202-21 6.973-1.375.73-4.3 1.648-6.5 2.038-5.058.896-14.09 3.855-18 5.896-1.65.861-3.675 1.584-4.5 1.606-.825.022-3.3.91-5.5 1.972-2.2 1.063-5.125 1.963-6.5 2-1.375.037-4.3.937-6.5 2s-4.687 1.947-5.527 1.966c-.84.019-2.416.644-3.5 1.39-1.085.745-5.798 2.58-10.473 4.077-4.675 1.497-9.85 3.34-11.5 4.094-8.299 3.794-15.54 6.387-20.5 7.34-3.025.581-11.575 3.137-19 5.679-7.425 2.542-15.75 4.991-18.5 5.443-2.75.452-9.05 2.047-14 3.546-4.95 1.498-11.475 3.351-14.5 4.117a8292.4 8292.4 0 0 0-9 2.285c-1.925.49-7.1 1.58-11.5 2.421-4.4.841-11.825 2.444-16.5 3.561-13.85 3.31-35.025 6.811-59 9.755-19.995 2.455-25.728 2.757-51.5 2.711-18.346-.032-31.388-.499-35.5-1.27-3.575-.669-11.675-2.089-18-3.155-20.668-3.482-37.363-10.065-53.98-21.286-11.305-7.634-20.41-17.458-27.503-29.674-5.889-10.142-7.445-15.895-8.737-32.307-1.947-24.712.936-51.468 7.292-67.693 1.185-3.025 2.798-7.525 3.584-10 .786-2.475 2.586-6.75 4.001-9.5 1.415-2.75 4.325-8.458 6.467-12.685 2.141-4.227 5.415-9.678 7.274-12.114 1.86-2.435 3.685-5.387 4.057-6.559.372-1.171 1.396-2.85 2.275-3.73.88-.879 4.113-4.865 7.185-8.858 10.668-13.868 21.205-25.164 34.698-37.196 8.185-7.3 22.48-18.802 25.13-20.22 1.034-.554 4.095-2.836 6.8-5.072 2.706-2.237 5.31-4.066 5.784-4.066.476 0-.77 2.138-2.767 4.75-1.998 2.613-4.078 5.825-4.624 7.14-.546 1.313-1.993 3.578-3.217 5.032-1.224 1.454-3.963 6.23-6.087 10.611-2.125 4.382-4.346 8.867-4.937 9.967-3.937 7.335-5.962 12.498-6.713 17.11-.474 2.914-1.322 6.157-1.885 7.208-.562 1.052-1.805 7.311-2.762 13.91-1.53 10.552-1.58 13.011-.41 20.386.731 4.612 2.112 10.186 3.07 12.386.957 2.2 2.01 5.144 2.34 6.543.855 3.627 10.385 13.8 17.5 18.684 16.693 11.455 50.464 15.212 87.665 9.753 9.35-1.372 20.6-2.99 25-3.595 7.167-.985 15.673-3.011 38-9.051 3.85-1.042 9.468-2.324 12.485-2.85 5.872-1.023 20.58-5.35 25.515-7.507 1.65-.721 4.8-1.618 7-1.993 4.71-.802 16.162-4.3 26-7.941 3.85-1.425 9.7-3.213 13-3.973 3.3-.761 9.15-2.593 13-4.071 3.85-1.478 10.6-3.789 15-5.134 4.4-1.345 9.35-2.925 11-3.512 8.835-3.139 11.279-4.071 14.151-5.398 1.733-.8 3.74-1.455 4.46-1.455 1.803 0 28.13-9.028 29.482-10.11.602-.481 4.202-1.52 8-2.307 3.8-.787 12.307-3.473 18.907-5.969 6.6-2.495 12.772-4.554 13.715-4.575.944-.022 9.269-2.542 18.5-5.602 9.232-3.06 20.369-6.245 24.748-7.079 4.38-.834 8.85-1.99 9.932-2.57 2.244-1.2 9.897-3.26 20.105-5.412 15.86-3.343 20.42-4.332 29-6.296 16.81-3.845 28.977-5.95 38-6.574 4.95-.342 12.825-1.257 17.5-2.033 21.027-3.492 71.534-3.461 89.5.054 4.4.86 11.15 1.945 15 2.409 3.85.464 10.15 2.043 14 3.508 3.85 1.466 8.572 3.142 10.494 3.725 1.922.583 4.385 1.683 5.473 2.445 1.088.763 2.89 1.4 4.006 1.416 3.456.05 27.132 16.15 28.063 19.083.311.981 1.425 2.057 2.474 2.39 1.893.601 7.953 7.498 8.03 9.14.023.472 1.373 2.415 3 4.32 1.628 1.903 2.96 3.893 2.96 4.42 0 .528.683 1.714 1.517 2.636 3.474 3.839 8.324 29.293 8.38 43.981.03 8.162-2.467 29.933-4.877 42.5-1.417 7.393-5.725 20.803-8.187 25.485-1.008 1.917-1.848 4.167-1.867 5-.019.833-.903 3.315-1.966 5.515-1.063 2.2-1.947 4.421-1.966 4.936-.02.514-.883 1.864-1.92 3-1.037 1.135-3.74 5.597-6.008 9.915-2.267 4.318-5.694 9.686-7.614 11.93-1.92 2.243-3.492 4.641-3.492 5.328 0 .687-1.638 2.968-3.64 5.07-2.002 2.101-4.365 4.946-5.25 6.322-1.428 2.22-22.061 24.104-24.61 26.102-.55.432-3.809 3.285-7.241 6.34-3.433 3.057-6.62 5.557-7.08 5.557-.462 0-3.279 2.247-6.26 4.994-2.98 2.746-5.9 4.996-6.488 5-.589.003-3.482 1.806-6.431 4.006-5.293 3.95-7 4.736-7 3.228zM531.144 706.357c-11.437-1.378-12.633-1.81-24.78-8.926-5.21-3.051-5.345-3.814-3.29-18.51 2.272-16.25 3.62-22.144 8.314-36.355 1.987-6.014 3.612-11.69 3.612-12.612 0-1.527 1.193-4.403 8.604-20.734 1.318-2.903 2.406-6.053 2.418-7 .012-.946.902-2.845 1.978-4.22 1.076-1.375 1.966-3.002 1.978-3.615.012-.613.932-2.272 2.043-3.685 1.112-1.413 2.665-4.394 3.452-6.623.786-2.229 3.381-6.87 5.767-10.315 2.385-3.444 5.63-8.85 7.212-12.012 1.581-3.163 3.245-5.75 3.697-5.75.453 0 2.051-1.913 3.553-4.25 1.502-2.337 4-5.825 5.55-7.75 1.55-1.925 3.14-3.957 3.533-4.516 1.799-2.555 10.845-13.242 13.15-15.535 1.41-1.404 4.172-4.329 6.137-6.5 1.964-2.172 8.04-8.062 13.5-13.09 13.14-12.097 14.846-13.591 17.525-15.359 1.25-.825 4.154-3.187 6.45-5.25 2.297-2.062 4.64-3.75 5.206-3.75.566 0 3.103-1.714 5.638-3.809 2.535-2.095 7.422-5.301 10.86-7.125 3.437-1.824 6.96-3.935 7.828-4.691.868-.756 2.036-1.375 2.595-1.375.559 0 1.83-.9 2.826-2 .995-1.1 2.528-2.007 3.405-2.015.877-.008 2.568-.57 3.757-1.25 7.16-4.09 18.495-9.737 19.572-9.751.697-.01 5.657-2.003 11.025-4.431 5.367-2.428 12.241-4.93 15.275-5.56 3.035-.63 9.443-2.41 14.242-3.954 4.798-1.544 10.299-3.13 12.224-3.522 1.925-.393 5.525-1.3 8-2.015 2.475-.715 10.125-1.813 17-2.438 6.875-.626 15.2-1.534 18.5-2.017 7.715-1.13 46.167-1.141 54-.017 3.3.474 10.95 1.36 17 1.97 14.18 1.427 24.149 3.583 39 8.432 4.4 1.437 10.17 3.047 12.824 3.579 2.653.53 6.253 1.609 8 2.395 8.22 3.7 13.583 5.936 18.176 7.577 2.75.982 7.925 3.413 11.5 5.402 3.575 1.99 7.625 4.103 9 4.697 6.913 2.989 23.302 12.722 27.903 16.571 1.872 1.566 5.318 3.972 7.659 5.347 3.828 2.248 6.293 4.088 18.41 13.736 5.076 4.042 36.172 35.19 39.06 39.126 1.358 1.849 4.497 5.899 6.978 9 2.48 3.1 5.75 7.55 7.264 9.888 1.515 2.338 3.124 4.25 3.577 4.25.452 0 2.114 2.588 3.693 5.75 1.578 3.163 3.114 5.975 3.413 6.25 1.896 1.746 9.904 14.982 10.436 17.25l.645 2.75-18.769.01c-19.276.01-38.181 1.192-48.769 3.047-20.08 3.519-29.863 5.133-36.5 6.023-9.48 1.272-21.89 3.699-29 5.672-3.025.84-7.975 2.096-11 2.791-3.025.696-6.85 1.73-8.5 2.298-1.65.569-5.7 1.456-9 1.973-3.3.517-9.15 1.941-13 3.165-11.665 3.71-19.693 6.024-26 7.497-3.3.77-11.4 3.2-18 5.396-6.6 2.198-15.6 5.129-20 6.514-4.4 1.386-11.15 3.702-15 5.148-3.85 1.446-8.575 3.075-10.5 3.62-10.873 3.08-17.788 5.283-20 6.372-5.358 2.635-13.656 5.474-16.02 5.48-1.364.003-3.74.664-5.28 1.467-1.541.804-4.241 1.901-6 2.44-1.76.538-6.35 2.13-10.2 3.536-3.85 1.407-9.923 3.297-13.496 4.2-3.573.903-7.173 2.023-8 2.49-3.193 1.8-18.505 6.861-20.761 6.861-1.306 0-3.337.515-4.513 1.144-1.176.63-4.183 1.73-6.684 2.448-6.781 1.943-14.148 4.448-17.697 6.016-1.733.765-4.223 1.392-5.532 1.392-2.437 0-6.985 1.157-19.317 4.915-8.689 2.647-19.684 5.424-29.5 7.452-4.125.851-12.45 2.692-18.5 4.089-25.915 5.985-56.876 7.85-81.356 4.9z" style="display:inline;fill:#000;fill-opacity:1"/></svg>